/* XPM */
static char *result[] = {
/* columns rows colors chars-per-pixel */
"41 47 193 2 ",
"   c #140F1D",
".  c #171017",
"X  c #16141C",
"o  c #1A161D",
"O  c #1C191F",
"+  c #20161F",
"@  c #151124",
"#  c #1A1624",
"$  c #1C1923",
"%  c #171329",
"&  c #1A162C",
"*  c #1D1A2B",
"=  c #110930",
"-  c #1B1730",
";  c #1E1A31",
":  c #1C1638",
">  c #1F183A",
",  c #211C25",
"<  c #211C2A",
"1  c #201736",
"2  c #221D33",
"3  c #281F34",
"4  c #221C3C",
"5  c #23212D",
"6  c #29202C",
"7  c #252135",
"8  c #2B2534",
"9  c #2E2832",
"0  c #26223B",
"q  c #2A253C",
"w  c #2B293D",
"e  c #332C36",
"r  c #382E37",
"t  c #30263F",
"y  c #342C39",
"u  c #353037",
"i  c #363139",
"p  c #3A343D",
"a  c #3D383F",
"s  c #413C3E",
"d  c #241D42",
"f  c #261F48",
"g  c #262143",
"h  c #2A2444",
"j  c #2E2944",
"k  c #2A254A",
"l  c #2E2949",
"z  c #332D44",
"x  c #322E4F",
"c  c #373341",
"v  c #3B3642",
"b  c #3D3A43",
"n  c #3F364D",
"m  c #3F384A",
"M  c #2E2750",
"N  c #352E53",
"B  c #362F58",
"V  c #392F5B",
"C  c #363152",
"Z  c #3B3355",
"A  c #3C3956",
"S  c #363159",
"D  c #3C355C",
"F  c #3F3B5A",
"G  c #3F3761",
"H  c #3F3962",
"J  c #423C44",
"K  c #483E46",
"L  c #443D4B",
"P  c #493E4F",
"I  c #453E54",
"U  c #41375C",
"Y  c #413B5D",
"T  c #4A3F5D",
"R  c #433C63",
"E  c #474047",
"W  c #494246",
"Q  c #45414B",
"!  c #4A444D",
"~  c #4A484D",
"^  c #504846",
"/  c #464250",
"(  c #4A4251",
")  c #4B4852",
"_  c #4A475C",
"`  c #514A52",
"'  c #534D5B",
"]  c #5B545B",
"[  c #615A5D",
"{  c #6C664C",
"}  c #71674E",
"|  c #6C6554",
" . c #6F6955",
".. c #66625A",
"X. c #6C655C",
"o. c #6E6A5C",
"O. c #666354",
"+. c #716B55",
"@. c #726C5B",
"#. c #777254",
"$. c #787157",
"%. c #76705D",
"&. c #79725E",
"*. c #474264",
"=. c #494264",
"-. c #474069",
";. c #4B446B",
":. c #4E496A",
">. c #544E63",
",. c #594F62",
"<. c #544C6C",
"1. c #565162",
"2. c #5C5564",
"3. c #5F5C67",
"4. c #5D556C",
"5. c #5D596F",
"6. c #4D4670",
"7. c #4A4870",
"8. c #544D73",
"9. c #594F73",
"0. c #544E79",
"q. c #584F7C",
"w. c #575174",
"e. c #5A5375",
"r. c #5D5A74",
"t. c #54517C",
"y. c #5B547C",
"u. c #5E597C",
"i. c #635C65",
"p. c #635D6C",
"a. c #615774",
"s. c #635B72",
"d. c #61577A",
"f. c #625A7C",
"g. c #6B6563",
"h. c #6E6A64",
"j. c #67646C",
"k. c #6B656C",
"l. c #6D696A",
"z. c #666263",
"x. c #706664",
"c. c #736C62",
"v. c #786F66",
"b. c #71676F",
"n. c #726C6B",
"m. c #786F68",
"M. c #767164",
"N. c #7A7364",
"B. c #75716D",
"V. c #79726C",
"C. c #6E6A71",
"Z. c #6A677A",
"A. c #746C72",
"S. c #786F71",
"D. c #70687F",
"F. c #767273",
"G. c #797272",
"H. c #565080",
"J. c #5C5581",
"K. c #5E5882",
"L. c #5E5989",
"P. c #605786",
"I. c #635B83",
"U. c #645D89",
"Y. c #696387",
"T. c #6E6884",
"R. c #68648C",
"E. c #736D8C",
"W. c #746B86",
"Q. c #76728B",
"!. c #7B758C",
"~. c #7C798A",
"^. c #6E6C93",
"/. c #756E93",
"(. c #786E91",
"). c #726E99",
"_. c #767294",
"`. c #7B7593",
"'. c #7D7993",
"]. c #7C769A",
"[. c #7C789A",
"{. c #74719C",
"}. c #7C78A1",
"|. c #817792",
" X c #827C94",
".X c #817B9B",
"XX c #827FAA",
"oX c #817DA2",
"OX c #858097",
"+X c #86829C",
"@X c #89849A",
"#X c #8180A0",
"$X c #8883A3",
/* pixels */
"x.@.c.@.o. . .+.+. .$. .o.@.V.O.N...h.B.l.B.l.h.n.c.+.@.+.#.} #.@.@.@.N.| c.X.@.@.",
"x.o.o.@.c.&.&.$. .+.@. .@.X.O.V.h.n.l.k.j.C.3.F.i.h.V. .@.+.{ { %. .@.@.c.| c.&.@.",
"x.v.@.@.@.| | | M.@.O.X.V.B.g.l.~ J b v w m Q b W n.l...c.M.+.N.@.@.+.N.X.@.X.@.@.",
"@.@.@.@.| | @.&.@.@.h.G.[ W p J 5.Q.'.'.Q.'.Q. Xi.L p s c...o.h.@.+.M.O.&.@.&.| @.",
"@.o. . .%.@.c.@.X.B.l.j.' ] p.I E.#X[.{.#X#X[.[.E._ 1.Z.b C.l.F.X.| %.O.M. .@. .+.",
"+.#.o. .+.@.o.g.n.l.E Q T..XY.N u.^.{.XX{.{.}.}.r.w '.Z.~./ v j.B.M.o.%.@.@. .%.X.",
" .+.%.%.@.h.c.B.k.v ]  X X_.E.V 7.R.t.t.L.L.t.K.u.x r.#X'.+X5./ z.h.N.o.%. .+.#.+.",
"#.+.+. .o.o.h.j.Q 2.'.[._.I.6.U.R K.t.L.H.J.H.t.R K.r.<.[._._.5.Q g.M.h.O.N.+. .+.",
"+.#. .%.h.h.l.~ 1.j '.8.d.0.U.y.l F w.u.y.t.w.R k w.u.w.u.u._.0 3.J G.h.O.%.o.+. .",
"{ +.+.o.X.F.~ ' Q.`.g *.q.P.0.R ; j j 0 h j l k ; *.:.u.w.D M ].!.3.J g.M.o.| %.+.",
"$. .%.N.z.l.p @X+Xe.H : R R d d & 5 * @ & - % ; ; 0 j A Y = ;.t.`.!./ F...o.N.{ @.",
" . .X.c.l.) >..X`.f.7.S 1 d 4 1 # * * $ * * & & ; @ - j : ;.;.u.}.`.5.v B.o.@.%.@.",
"%.%.O.B.C.z .X`.w.u.I.Y h 2 % + $ X O $ $ * * $ @ 5 & & z Y 9.I.U.`.'.' [ v.| &.+.",
"%.| X.l.! 5.$X_.u.J.D 0 & # , , $ X $ , X $ , $ $ 5 $ % & 0 Y 8.H.)..X1.! x.X.| @.",
"@.o.B.l.v .XE.y.U.;.N 4 < < < + O O , $ $ $ $ X o $ $ 5 ; % h u.P.L.E. XK x.v.@.@.",
"@.o.M.C.L 0 =.y.K.R g & , + + + O , $ # $ $ O $ , $ X $ * @ z C H.H.R j L n.X.@.+.",
" .v.x.J s.d.D d k 0 ; @ O O O O O $ $ $ $ $ $ $ $ $ $ # $ * * g k k S f.4.E c.+.@.",
"%.@.g.P |.(.I.e.A w 5 X $ O , O O O O $ $ $ $ $ O $ O $ $ $ * w A w.K./.Q.~ v. .@.",
"@.o.n.P |.9.y.I.F 0 $ $ $ O O , O + $ $ $ $ $ $ O $ O O $ $ * w A u.U.e.~.u c.@.@.",
"@.@.x.p !.d.y.e.F w X 5 O $ O $ + O $ $ $ $ $ $ O $ $ $ % $ * 7 A w.y.0.@Xa c. .@.",
"| v.m.y r.9.y.y.C w @ 5 X O $ $ O $ $ $ $ $ $ $ O O $ $ $ @ 5 7 A Z.t.w.4.u X.o.@.",
"| @.x.9 _ e.d.y.k ; $ $ O O , O $ O $ O $ $ $ $ $ O O $ $ @ * ; g u.t.I.z p X.c.@.",
"X.@.S.t 0 D R R 0 % $ X , O 5 O O O $ $ $ $ $ $ O X O $ @ $ * * 0 Y G *.8 p @.@.x.",
"&.X.n.p A u.t.F g ; * $ O O O O O $ $ $ $ $ $ $ $ X $ $ $ $ * @ j D t.e.I e h.@.@.",
"@.X.n.P a.d.I.9.g ; $ $ $ $ , O O $ $ $ $ $ $ $ O $ O $ $ $ $ * 0 Y.y.w.5.b V.o.@.",
"} v.b.L <.9.d.I.g ; % $ X $ O O O $ * $ $ $ $ $ O O $ $ $ $ * * j :.8.u.s.a x.@.@.",
"@.v.x.P d.d.0.9.g ; $ $ $ O O O $ $ @ $ * @ $ $ $ O $ O $ $ $ * j d.y.w.5.p c.X.x.",
"&.X.b.L a.9.y.I.g * % $ $ O O O $ $ $ $ $ * $ $ $ O O $ $ $ % * ; u.0.y.a.e h.@.@.",
"[ | S.P a.9.P.9.g ; $ * O O O O $ $ $ $ $ % * $ $ O $ O $ $ * % j r.K.u.4.r x.@.c.",
"$.v.i.8 z R R f j ; $ $ O O O O $ O $ $ $ $ $ $ $ $ O O $ $ $ * 0 l R N t 8 v.v.@.",
"} v.S.P <.d.P.d.g ; $ O O X X $ $ $ $ $ * $ $ $ $ O O $ $ $ * * q C 9.Y.a.J X.x.c.",
"@.@.x.L f.q.d.P.0 5 $ $ $ $ $ $ $ $ $ $ $ $ $ $ $ $ O $ $ $ $ * q f.q.9.4.9 x.@.x.",
"@.v.k.P d.y.y.y.l & $ $ O , . o * $ * * $ @ # # * # < $ # , < , 3 a.9.9.s.r X.c.c.",
"| o.k.( e.y.y.y.> % < $ o o + 6 * $ $ * * $ 5 $ $ $ $ < # # < @ 4 |.d.d.,.K m.@.@.",
"+. .c.L I e.I.d.l 7   $ , # 6   $ % $ * $ * $ * * & # * % , $ % h 9.I.f.n K c.@.@.",
"{  .N.a q Y N d g @ q # 8 $ 3 3 7 5 w % w - 5 ; 3 < q * q * 8 1 h d U U t e h.@.o.",
"#.+.V.E m r.d.q.k z % h < 4 1 4 - 0 - 0 & h - 4 & 0 - 0 & 4 & 4 d I.U.P.p.8 c.o.@.",
" .{ x.) >.d.e.P.f D z _ 1 =.d ;.k F g *.d R z U l Y g *.d R k D f d.0.q.4.s x. .@.",
"N.@.k.( 4.e.J.U.f R U B R R R V D D H G D D R D D G G D R D G R M 0.P.I.9.s X.@.@.",
"O.B.n.P e.y.q.q.f J.I.0.P.q.P.H.J.t.J.J.y.y.I.q.y.J.J.y.I.y.y.I.f P.J.q.a.r X.+.@.",
"v.x.b.K a.d.9.P.d I.e.w.e..X/.[.].].].].].].].].oX_..X(.d.f.e.P.g e.P.<.a.K X.$.} ",
"x.x.b.P i.a.e.a.q (.!.OX'.!. X.X'.'.'.'.'.`.!.`.`.!. X.XW.Q.W.!.3 f.e.9.i.s o.&.@.",
"c.c.n.] ] ,.2.2.' i.] ] k.C.k.i.k.j.l.j.k.j.j.j.p.p.k.A.p.i.] p.2.s.4.4.J W $.+.@.",
"@.c.c.[ [ [ [ ] x.n.n...l.h.h.G.h.l.l.h.h.h.l.h.x.c.z.n.x.x.g.h.k.` ,.i.K X.$.[ | ",
"| $.o.x.X.g.c.g.h.c.O.%.@.o.%.O.c.o.@.o.c.c.x.o.c.c.o.@.@.c.v.@.v.V.k.A.x.x.$.} | ",
"@.+.+.v.c.c.c.o.@.%.o.$.| @.%.o.$.+.o.@.o.+.+.+.@.$.+.+. .&.|  . .X.x.x.v.@.$.$.@.",
"@.+.@.@.c.o.X.@.M. .@. . .N.| %.+.@.@.@.+.@.+.@.| @.@.+.@.N.+.@.&.| m.S.[ $.} } $."
};
