/* XPM */
static char *result[] = {
/* columns rows colors chars-per-pixel */
"33 40 220 2 ",
"   c #050302",
".  c #0C0201",
"X  c #04010B",
"o  c #0B030C",
"O  c #0C090A",
"+  c #120100",
"@  c #1B0300",
"#  c #130900",
"$  c #110D09",
"%  c #1B0A0A",
"&  c #1A1503",
"*  c #030213",
"=  c #01021B",
"-  c #0C0D1C",
";  c #09071A",
":  c #130B15",
">  c #16131B",
",  c #230902",
"<  c #290D00",
"1  c #390B05",
"2  c #2D1306",
"3  c #241E00",
"4  c #2A1A00",
"5  c #291306",
"6  c #341B04",
"7  c #3A130C",
"8  c #371809",
"9  c #381815",
"0  c #2D2302",
"q  c #242200",
"w  c #372509",
"e  c #3C3115",
"r  c #070923",
"t  c #1A1E3C",
"y  c #181B20",
"u  c #23242B",
"i  c #222333",
"p  c #22293A",
"a  c #292838",
"s  c #352839",
"d  c #373338",
"f  c #3B2D22",
"g  c #401713",
"h  c #462618",
"j  c #492726",
"k  c #552C29",
"l  c #413222",
"z  c #49372C",
"x  c #5C332D",
"c  c #572D34",
"v  c #4D3632",
"b  c #5B3433",
"n  c #5C3B39",
"m  c #573936",
"M  c #633D3B",
"N  c #633639",
"B  c #584E19",
"V  c #5A591C",
"C  c #5D501B",
"Z  c #63491A",
"A  c #67591B",
"S  c #5A462D",
"D  c #585226",
"F  c #4D4133",
"G  c #5F4136",
"H  c #5B4937",
"J  c #664C27",
"K  c #615B22",
"L  c #645129",
"P  c #685A29",
"I  c #664B37",
"U  c #635534",
"Y  c #645A32",
"T  c #675539",
"R  c #755B3A",
"E  c #785D28",
"W  c #676328",
"Q  c #776828",
"!  c #6F633B",
"~  c #7C7336",
"^  c #2D2C45",
"/  c #2D2E4C",
"(  c #262945",
")  c #312D42",
"_  c #2C324B",
"`  c #353647",
"'  c #41374F",
"]  c #5E3440",
"[  c #413E54",
"{  c #683E43",
"}  c #743A40",
"|  c #3A4153",
" . c #5B4942",
".. c #454557",
"X. c #584A59",
"o. c #654E4B",
"O. c #684644",
"+. c #724344",
"@. c #75494A",
"#. c #6B5C4B",
"$. c #665847",
"%. c #7B4E51",
"&. c #6D5D55",
"*. c #655354",
"=. c #735B53",
"-. c #7B5C54",
";. c #755F5C",
":. c #7A5D59",
">. c #765653",
",. c #5F6052",
"<. c #67624D",
"1. c #6B644D",
"2. c #636451",
"3. c #6C6553",
"4. c #656953",
"5. c #6D6B55",
"6. c #6C665C",
"7. c #6E6B5A",
"8. c #66625F",
"9. c #736454",
"0. c #726B55",
"q. c #74655B",
"w. c #7B645B",
"e. c #736B5A",
"r. c #7A6B5C",
"t. c #7D6257",
"y. c #6E715B",
"u. c #74725B",
"i. c #79725E",
"p. c #777154",
"a. c #7A694B",
"s. c #494B64",
"d. c #7E5C63",
"f. c #6A6562",
"g. c #6E6A64",
"h. c #6C676A",
"j. c #7B6463",
"k. c #736D62",
"l. c #7C6C62",
"z. c #716B6C",
"x. c #796B65",
"c. c #6F7661",
"v. c #747162",
"b. c #7A7362",
"n. c #74716D",
"m. c #7A7768",
"M. c #696776",
"N. c #706D78",
"B. c #777173",
"V. c #816F3F",
"C. c #857736",
"Z. c #84494F",
"A. c #825C5C",
"S. c #8C5C5C",
"D. c #83774C",
"F. c #92784B",
"G. c #87625D",
"H. c #87775D",
"J. c #845D60",
"K. c #895C66",
"L. c #836463",
"P. c #846A64",
"I. c #856E6B",
"U. c #8A6768",
"Y. c #81726A",
"T. c #867767",
"R. c #906868",
"E. c #A67C7C",
"W. c #A8827A",
"Q. c #B79A75",
"!. c #B69568",
"~. c #B8A07E",
"^. c #C4A37B",
"/. c #C8BD7B",
"(. c #C6C17D",
"). c #6F7082",
"_. c #B57B81",
"`. c #AF8380",
"'. c #B8898A",
"]. c #AB928F",
"[. c #BFA197",
"{. c #AAA297",
"}. c #A19FA2",
"|. c #B49CA1",
" X c #97A0A9",
".X c #A6A3A6",
"XX c #A3ABB4",
"oX c #C4B889",
"OX c #CAB997",
"+X c #D4BF92",
"@X c #C5AC83",
"#X c #D9ABA7",
"$X c #D8B9A9",
"%X c #E7A8B0",
"&X c #C5C289",
"*X c #C0C281",
"=X c #D1CA8B",
"-X c #C9C79A",
";X c #EDCAA7",
":X c #F0CCAC",
">X c #F4CCB8",
",X c #FCD8B9",
"<X c #EBC8B4",
"1X c #BABBDA",
"2X c #BEC3D6",
"3X c #C8C9D9",
"4X c #D5CDD0",
"5X c #E7CDCB",
"6X c #EAD3CE",
"7X c #F8D4C2",
"8X c #F1D4D1",
"9X c #F1CCC3",
"0X c #FFEADA",
"qX c #FBEACE",
"wX c #D3D3E4",
"eX c #DAE3EC",
"rX c #FFF3E2",
"tX c #EFECF5",
"yX c #FAF7FF",
"uX c #E3E0E9",
/* pixels */
"e.e.p.0.9.r.k.j.x.q.e.5.p.4.y.4.v.k.v.7.i.9.9.r.t.9.e.7.7.7.k.q.e.",
"e.7.0.0.9.p.f.e.k.7.b.5.<.u.u.2.k.7.6.5.e.r.l.9.r.r.e.7.7.e.q.k.e.",
"7.y.5.5.y.5.7.e.6.k.3.e.p.3.e.l.j.&.T.q.<.e.3.e.9.r.0.7.7.e.e.e.e.",
"5.7.5.y.y.y.7.7.u.6.p.9.p.b.q.P.k R.:.l.i.1.Y.9.p.e.0.e.e.e.e.e.5.",
"5.u.5.y.y.4.5.5.5.5.l.&.I.:.U.c E.} R.-.q.7.3.e.9.r.0.0.0.5.0.u.e.",
"5.7.5.7.5.5.b.0.e.r.w.I.A.L.b @.Z._.k -.L.m.q.r.9.e.r.0.0.y.5.5.e.",
"5.0.e.x.e.9.b.#.G.t.J.J.U.N } Z.%X} '.M l.;.r.9.r.r.e.9.0.5.p.5.0.",
"5.p.q.x.q.:.-.I b b K.K.N @.%.1 %X} @.M :.P.:.L.G.w.e.e.u.0.0.0.e.",
"p.i.&.x.;.L.A.N +.+.N N { %.7 G.#X9 7 W.b M x N m n q.l.e.3.e.e.0.",
"5.4.6.q.I.j.L.x +.g %.+.>.9 @ $XT.< 2 #.W.E.'.'.E.n l.q.3.e.i.9.e.",
"y.m.k.x.d.j.A.M O.#X7 O.5 3 e & D.w 4 2 9 7 S.I '.c w.q.b.k.9.9.e.",
",.2.7.6.I.J.U.n O.@.$X2 0 0 q -XD 0 4 4 T #X#X'.E.O.:.l.l.3.r.e.e.",
"c.c.m.3.q.m &.m >.2 U a.Y B & =XW 3 D ! oX8 1 '.N A.U.w.q.3.e.k.5.",
"y.y.5.r.x.v O.9 j I w L K &XV (.V K &XD Y 6 1 W.x G.G.=.l.b.e.e.5.",
"7.5.e.9.9.% v 9 8 8 T oXK (.W (.A ~ =XD oXY g h h N >.P.w.3.v.2.e.",
"7.e.5.i.q., z 9 8 T OXC =XA C.A /.C.~ &XY @XE J W.W.N v P.q.e.6.u.",
"0.9.0.9.j.=.*.z T -XW D C.Z F.Z E A A V.L P ^.R g @.'.c d.j.l.5.7.",
"i.p.e.i.q.j.% , U p.V oXP Q.^.Q.!.~.^.Z +XC F.J k j ] U.I.;.#.p.y.",
"9.u.0.5.k.j.I.$.H.Y D D.# Q.;X,X,X;XQ.@ D.R L $XI b J.d.:.r.e.i.1.",
"e.i.9.e.k.q.;.:.T U -XU qX@ 7X:X:X,X< 0XI +XY S -.-.L.I.q.e.0.y.7.",
"3.4.u.i.$.m.o.F f H T . rXO.>X>X,X<XM 0X@ H U S l m I.q.#.p.7.y.e.",
"b.7.y.0.0.Y.q.+ z l F  .5X5X9X9X7X9X8X5X*.f F l # l.q.q.b.b.4.4.5.",
"5.b.4.5.0.e.r.q.f v # . *.|.8X@X].8X|.X.. % + # m.9.e.e.0.<.v.y.5.",
"e.u.1.u.7.e.q.q.k.k.z.o s o + o.H + o s : h.z.e.7.i.5.u.5.0.y.e.e.",
"7.e.u.5.7.7.p.e.x.g.o a ) 3X4Xd &.4X3X' ..O f.c.7.7.0.0.0.0.e.e.e.",
"q.e.u.5.5.e.e.q.g.z.- ^ r i eX}.}.tX` ( ..* n.y.7.7.7.0.e.0.e.e.e.",
"e.e.0.5.7.7.e.e.e.$ y _ = ( d y u i s.r ^ a O ,.7.7.e.e.0.r.e.e.e.",
"q.e.0.e.7.k.0.e.u.$ i ; r ( | XXeXi s.* a a O m.7.e.e.e.e.e.q.q.9.",
"0.r.e.y.6.g.5.e.# {.a = _ _ p  XXXp ( / * u 4X  7.e.k.e.e.e.e.r.e.",
"0.e.7.7.6.c.e.e.. {.wX; t / 2X` M.3Xt / * .X6X$ e.g.e.e.0.e.0.q.e.",
"a.0.7.7.g.g.e.e.r.# o yXr 1X` | ( ` 3X= yXo & i.k.g.g.e.e.0.e.e.e.",
"0.0.7.7.v.7.e.9.9.x.h.; ( ( | ; - p ( ..: z.f.q.6.q.e.g.e.e.e.e.e.",
"9.e.e.e.e.e.0.e.7.k.B.> ) s.r M.).* ` ..> z.k.k.g.e.k.7.e.e.0.e.e.",
"e.e.e.0.e.0.5.e.7.6.6.> o - ; M.M.- X O $ f.z.7.e.e.e.e.0.5.e.0.e.",
"e.q.e.e.e.0.0.e.e.n.k.8.:   M.N.n.h.> $ g.z.g.7.e.7.q.e.e.e.7.q.0.",
"k.q.e.e.e.0.7.7.5.7.v.6.z.B.z.f.z.f.f.f.6.c.3.e.e.e.0.e.e.e.e.e.e.",
"q.q.e.e.e.e.e.0.e.e.e.3.q.7.m.6.v.k.7.e.T.3.b.0.e.e.0.e.e.e.e.e.e.",
"e.x.k.e.7.e.e.e.e.7.i.i.i.3.q.5.7.u.5.e.<.1.5.p.e.0.e.e.e.e.e.7.e.",
"e.e.e.e.e.e.e.q.0.0.0.3.p.5.0.i.5.p.0.1.b.1.T.1.0.0.e.e.e.e.e.e.e.",
"e.e.e.7.e.e.e.e.e.e.e.1.p.p.a.0.0.0.p.1.i.5.0.0.0.0.e.0.7.e.g.e.7."
};
