/* XPM */
static char *smaller_wall[] = {
/* columns rows colors chars-per-pixel */
"64 64 210 2 ",
"   c #1F1F2A",
".  c #1F1E33",
"X  c #251D2C",
"o  c #2B1B2F",
"O  c #311C2E",
"+  c #251D33",
"@  c #2A1C33",
"#  c #251D39",
"$  c #291D3A",
"%  c #321E34",
"&  c #301F3C",
"*  c #23232F",
"=  c #2D212E",
"-  c #242333",
";  c #2B2334",
":  c #252A35",
">  c #2B2A36",
",  c #26243A",
"<  c #2C243A",
"1  c #2D2A3C",
"2  c #332435",
"3  c #312C36",
"4  c #392A36",
"5  c #33253A",
"6  c #322A3C",
"7  c #3B2D3C",
"8  c #3A2537",
"9  c #2E323C",
"0  c #34313C",
"q  c #3D333D",
"w  c #3B3539",
"e  c #432D3C",
"r  c #492D3C",
"t  c #452737",
"y  c #42323D",
"u  c #48303E",
"i  c #43383E",
"p  c #49393F",
"a  c #2D2140",
"s  c #2F2B41",
"d  c #352C42",
"f  c #3D2D41",
"g  c #302341",
"h  c #353343",
"j  c #3D3342",
"k  c #3D3C45",
"l  c #333448",
"z  c #3D3749",
"x  c #3C3B49",
"c  c #442E40",
"v  c #4B2E41",
"b  c #433443",
"n  c #493344",
"m  c #443C45",
"M  c #483A45",
"N  c #44364A",
"B  c #4C354A",
"V  c #453C4A",
"C  c #4B3B4B",
"Z  c #513C49",
"A  c #423F50",
"S  c #364445",
"D  c #3B4345",
"F  c #374548",
"G  c #3C444A",
"H  c #3D4A4B",
"J  c #3A4846",
"K  c #414245",
"L  c #43444B",
"P  c #4B434D",
"I  c #434B4C",
"U  c #484849",
"Y  c #434350",
"T  c #4B4451",
"R  c #464D54",
"E  c #494C53",
"W  c #524552",
"Q  c #524C54",
"!  c #5A4C55",
"~  c #5A4C59",
"^  c #594857",
"/  c #435256",
"(  c #4C5159",
")  c #555456",
"_  c #5B5355",
"`  c #5C5B56",
"'  c #54545A",
"]  c #5C555A",
"[  c #575A5C",
"{  c #5D5B5C",
"}  c #575A57",
"|  c #634F57",
" . c #615456",
".. c #635A57",
"X. c #62555B",
"o. c #625C5C",
"O. c #695B5D",
"+. c #5E615E",
"@. c #63615E",
"#. c #6B605F",
"$. c #5D5C61",
"%. c #635760",
"&. c #645D62",
"*. c #695E62",
"=. c #635D6D",
"-. c #685E6F",
";. c #705A66",
":. c #695F72",
">. c #5E6263",
",. c #5D6572",
"<. c #646263",
"1. c #696164",
"2. c #64616B",
"3. c #6C656C",
"4. c #6C6A6C",
"5. c #616866",
"6. c #72656A",
"7. c #736C6D",
"8. c #796E6E",
"9. c #78676D",
"0. c #6E716F",
"q. c #73736E",
"w. c #79716F",
"e. c #646472",
"r. c #6D6573",
"t. c #646C73",
"y. c #6D6B74",
"u. c #6D6C7B",
"i. c #676E79",
"p. c #726573",
"a. c #746D73",
"s. c #7A6E75",
"d. c #756C7A",
"f. c #796E7C",
"g. c #706578",
"h. c #6D7373",
"j. c #6E757A",
"k. c #6F7979",
"l. c #677277",
"z. c #757575",
"x. c #797475",
"c. c #747875",
"v. c #797876",
"b. c #767579",
"n. c #7A757A",
"m. c #75797B",
"M. c #7A797B",
"N. c #826F7C",
"B. c #81757B",
"V. c #80797C",
"C. c #7E6E82",
"Z. c #6C7481",
"A. c #6E7A81",
"S. c #747482",
"D. c #7C7682",
"F. c #747C82",
"G. c #7B7A83",
"H. c #7D7C8C",
"J. c #7E7D90",
"K. c #837482",
"L. c #847B83",
"P. c #8C7A87",
"I. c #847C8A",
"U. c #8B7D8A",
"Y. c #887286",
"T. c #917A8C",
"R. c #897E90",
"E. c #867D90",
"W. c #937F90",
"Q. c #9B7E91",
"!. c #7B8486",
"~. c #74818A",
"^. c #7B838C",
"/. c #7D8591",
"(. c #7F8990",
"). c #8A8487",
"_. c #86838C",
"`. c #8C848D",
"'. c #8C898D",
"]. c #878187",
"[. c #91848E",
"{. c #91888E",
"}. c #868593",
"|. c #8D8492",
" X c #868A92",
".X c #8C8993",
"XX c #8F8798",
"oX c #8D8A99",
"OX c #938593",
"+X c #998394",
"@X c #928994",
"#X c #938699",
"$X c #928999",
"%X c #988997",
"&X c #93939B",
"*X c #8B9CA1",
"=X c #949CA5",
"-X c #9A9CA6",
";X c #969DA9",
":X c #9B9DA9",
">X c #9596A2",
",X c #A09DAB",
"<X c #93A2A7",
"1X c #99A2A6",
"2X c #96A4AA",
"3X c #9BA2AB",
"4X c #95A8AB",
"5X c #A1A3AE",
"6X c #A1A4B0",
"7X c #A1AAB0",
/* pixels */
"@X|.2.h ^.<X.XOXOXOX|.OX[.p.d ^.<X@XOXOXOXOXOXOXOXa.1 /.;X'.|.'.OX`.a.1 F.2X.X{.`.OXOXOXOXf.; F.4X.XOXOX|.OXOX{.[.K.; Z.3X X|.@X",
"x.L.D.~ -Xb.n.n.x.b.b.b.n.L.C 1Xj.b.b.n.b.z.b.b.b.L.N :Xb.b.n.n.n.n.`.b 6XS.b.n.x.b.b.x.G.T.b 3XF.m.b.n.x.b.b.j.x.[.v -XF.S.n.n.",
"b.b.*.W '.z.z.c.z.b.b.c.b.4.C .Xb.v.c.c.z.z.c.b.z.7.C |.b.b.z.z.b.a.a.m OXb.a.b.c.j.c.b.c.a.q @Xb.c.z.z.c.z.c.z.x.x.j  Xb.b.z.x.",
"x.4.' ' ).z.c.c.z.z.z.z.4.} R .Xn.x.z.z.z.z.c.b.z.X.W |.z.c.c.x.b.z.` T  Xb.c.c.x.z.z.z.7.{ L  Xb.c.z.z.z.z.x.x.w.@.K '.b.n.z.z.",
"z.4.) ) |.b.m.b.n.x.x.a.o.) I '.c.c.z.x.n.b.c.x.7.` j '.x.z.c.x.z.q.} U OXn.c.x.x.x.x.z.<.` m .Xx.c.z.b.n.b.x.z.q.@.w ].n.x.x.z.",
"z.3.! C OXn.z.q.8.a.a.&.x.~ M '.c.q.q.v.z.z.q.w.a.' P '.n.v.z.z.8.s.] q |.x.q.z.z.s.x.&.s.X.7 '.v.c.z.z.a.z.q.w.q.{ k _.B.x.c.c.",
"` W 5 l d.V.4.) _ ) [ { Q ; d d.L.7.3.3._ 3._  ._ 1 1 u.U.r.u.y._ ! 5 < r.L.4.) _ ] [ ' _ 1 + r.V.7.7.6._ 3._  . .0 # =.L.s.y.y.",
"T q 5 6 d V A , - 9 E U b 5 s 1 y i b 5 + 6 m p C 6 1 5 N j @ 1 E j 4 1 d V E : + 1 E E b 6 1 6 i p b f + 1 m i P 0 s 6 N b X > ",
";XoX@X@X@X%X_.e.l  X;X.X@XOXOX|.B.{.[.d.1 }.3X{.@XOXOX#X%Xd.5 G.4X@X{.{.@X@X'.S.1 !.3X X%X%X.X`.n.OXOXL.; S.3X+X{.+X#X#XOXK.3 d.",
"m.b.z.x.c.v.M.n.T 2Xj.m.x.n.a.&.1.n.M.L.B :Xb.z.x.z.n.b.S.].u b.b.v.x.x.b.z.c.].b 3Xb.n.n.n.x.*.&.z.n.#Xf 3Xk.b.v.b.n.c.M.{.b y.",
"z.z.z.b.z.z.z.<.P  Xb.b.z.q.6.{.x.z.z.y.V }.S.b.z.c.c.b.m.4.y b.b.v.b.z.n.z.z.y.j  Xb.x.x.a.1.{.x.z.n.a.x  Xb.z.z.z.b.c.x.a.q a.",
"c.b.c.z.b.n.0.) ' .Xb.b.7.4.).x.z.z.0.{ T .Xm.x.z.z.b.b.b.[ G m.z.z.z.z.x.x.z.[ Y %XB.v.x.1.'.x.x.b.x.&.G |.n.z.c.z.z.c.z.&.L l.",
"x.b.z.z.b.z.0.' ( .Xn.b.z.z.x.z.c.c.7.X.M OXz.z.z.z.z.z.f.[ H n.b.z.z.z.b.z.z.} H %Xn.z.M.x.x.z.c.c.q.&.e OXn.z.b.z.b.z.b.$.L l.",
"v.z.z.b.b.x.7.) ( |.n.n.z.c.z.z.z.q.7.! n [.z.@.z.z.z.x.s.] F b.v.x.z.b.c.z.w._ L @Xn.z.z.z.q.z.z.c.q.X.r P.v.o.z.x.x.a.z.o.K l.",
"].4.o.y.[ _ ! 2 0 b.L.a.a.r.{ X.X.X.! 5 g n.`.0.} } ] ] ~ f ; b.`.7.` a.] } ] 8 , a.].s.a.a.] ] X...X.7 @ a.].x.} [ $.[ ~ 7 ; 2.",
"b P 0 - - > j 5 ; 5 n v 7 2 @ 5 b n L < 5 5 b L E ; + > j < , 1 b P q , + ; k @ , 5 n v n 2 @ 5 b r I : - 5 b Y G 1 . - N 2 < 1 ",
"@X{.{.*.l }.:X|.OXOX+X+XW.r.h ^.:XoX X X#XOXOXoX Xd.1 E.:X#X@XoX%X@X|.a.g /.5X|.oX@X+X+X+XS., F.:X.X.XOXOX+XOXoXoXH.< u.6X$X#X|.",
"n.v.B.B.~ ;Xb.n.n.n.n.n.L.L.B 3XF.b.n.n.n.b.v.n.B.P.n 3Xm.x.w.x.m.z.B.U.B 5Xm.x.c.b.b.n.b.`.y 3Xm.z.n.z.c.n.n.n.b.OXr -XG.z.x.x.",
"x.z.x.;.W |.b.c.x.z.z.z.x.3.B {.b.b.b.x.x.c.b.n.x.9.n OXn.x.z.c.k.z.x.7.b OXM.z.z.c.z.b.c.a.y @Xn.x.c.c.c.c.c.z.z.N.r `.n.v.v.x.",
"z.c.7.! ^ `.z.c.n.b.z.n.a.] W |.n.b.z.b.z.z.z.b.x. .M @Xn.x.z.c.z.z.x.{ q @Xn.z.z.z.z.v.b.o.C OXn.c.z.z.b.x.z.z.z.@.y OXb.c.z.b.",
"z.z.0.( ' |.x.z.b.z.z.x.x._ L |.n.c.z.z.b.z.b.n.q.{ T .Xx.v.z.z.x.x.z.} U '.m.z.z.z.c.z.z.[ q @Xn.z.z.b.z.z.z.z.z.+.x |.n.c.z.z.",
"z.z.q.) Q `.z.c.x.z.z.x.a.[ R +Xf.b.b.z.c.z.z.x.x.{ L @Xn.x.z.z.z.z.x.{ P .Xb.c.z.z.z.z.x.[ G @Xx.v.z.z.b.z.c.x.z.o.D |.n.z.v.b.",
"q.x.a.! Q |.z.c.x.z.z.w.a.[ / '.n.n.x.z.z.x.x.z.s._ V @Xx.&.z.z.c.x.s._ j %Xn.x.c.z.z.z.b.$.L  XM.z.z.z.z.z.z.z.w.O.j `.M.{ z.x.",
"O.O.^ % j M.`.6.X...` ` ! 8 g S._.s.z.4.$.{ ` ` | 8 1 m.].a.{ X...X.%.5 ; d.U.a.$...` } X.7 + u.`.x.a.z.{ ` ` ` X.f @ 3.'.b.%.[ ",
"t e 4 @ $ 5 f - - : G x 7 @ @ 1 V b 7 - - , F K 4 o + > C f q ; e e 7 @ + < j ; . - H G 7 @ @ < V j c 2 - - G K q o + - P j 7 2 ",
"+XOX].D.$X$X|.:.d /.3XoX#X#X#X|.@X+XOXg.s ~.4X.X@X.X#X.X#X%X+XOX+XOXOXS.OX#X|.d.1 ~.2X X+X#X#X@X@X+X#Xf.< j.2X.X@XOX#X.X|.OX+X+X",
"n.v.q.<.v.n.L.n.Q :XG.x.v.n.n.m.n.n.n.U.B :Xm.M.v.b.n.b.v.n.n.M.n.n.n.o.x.x.v.'.c 6XG.v.M.n.n.b.n.n.v.+Xf :Xm.m.n.n.v.v.n.n.n.n.",
"c.c.c.q.o.x.b.<.C |.b.x.c.x.z.z.n.x.z.y.m '.x.c.c.c.z.c.c.b.x.c.c.z.v.x.1.z.c.a.b @Xm.z.z.n.x.x.b.b.z.x.7 OXb.c.z.x.z.b.c.m.b.b.",
"z.z.q.c.z.z.a.] ) {.b.b.x.v.x.x.x.z.q.` U {.z.z.z.z.z.z.z.z.c.q.c.c.z.v.z.c.q.{ T .Xm.b.x.x.x.x.z.c.h.+.D `.b.z.z.z.z.c.c.z.x.x.",
"z.c.z.z.c.q.7.) /  Xb.v.x.s.x.x.z.z.7.{ E .Xn.n.b.n.b.b.w.x.w.x.x.c.c.b.z.c.B.} G $XD.n.b.n.x.x.x.z.q.o.U _.v.M.b.c.z.z.z.8.x.q.",
"n.h.5.z.1.&.X.1 l I.'.n.n.z.<.q.&.O.] 3 1 G.|.M.m.b.>.m.<.O.&.5.x.h.>.b.&.&.O.6 , D.$Xn.b.m.+.v.#.1.O.j 5 f.OXm.k.A.<.m.<.&.#.+.",
"i L D k 4 i x # a 8 c j G J S D w y m - - < N G G G F G G q x : b U F m 7 b V - $ 5 b j L F S K w e G - $ , j G H F x F L q K : ",
"`.I.=.9 F.=X}.|.R.P.U.'._.r.1 A.=X`.|.U.R.R.|._._.y.1 Z.;X}.|._.].].b.- u.;X}.E.U.I.].`.`.d.- l.=X`.`._.`.U._. X`.b.1 ,.=X}.}.`.",
"z.G.L.W ,Xh.b.v.n.n.n.b.n.].m 5Xb.b.n.n.n.b.b.m.z.`.b 7XF.b.x.z.D.n.`.c 6Xm.n.n.n.b.n.n.b.OXb 5XF.n.x.x.x.n.n.b.n.OXB >XF.m.b.n.",
"z.n.3.C @Xz.v.q.x.b.b.b.z.y.m `.b.z.c.c.z.c.c.b.x.s.7 $Xn.b.x.x.b.x.x.b |.b.b.z.x.b.c.z.z.b.e .Xb.c.z.z.x.z.z.z.s.B.r _.D.b.n.z.",
"x.z.} Q '.z.z.z.z.c.z.x.a.} I '.z.z.z.z.z.z.x.z.z.{ V $Xn.b.b.x.b.z.{ I  Xb.b.b.b.z.z.x.z.&.L _.v.c.b.z.z.b.b.n.x.%.P I.M.n.z.z.",
"h.h.' E '.x.n.z.x.z.z.z.o.[ E '.z.x.v.z.z.z.z.b.z.{ q OXn.b.z.c.z.z.$.L OXx.c.z.z.x.n.x.&.` K `.M.x.x.j.b.z.x.z.c.@.w I.G.x.q.v.",
"x.a.^ T |.n.c.z.x.z.a.&.s._ M `.b.c.c.c.x.x.a.z.z.[ V @XB.x.z.c.x.x.%.b |.G.q.z.x.n.a.&.n.%.i `.c.c.b.x.a.b.z.q.w.<.x I.n.x.x.c.",
"O._ 5 f G.OXz.{ $.>.%.%. .8 5 L. Xm.b.a.O.s.O.....7 < n.OXn.b.h... .e @ d.@Xc.$.{ $.$.%.%.e o s..Xn.n.n.&.b.&...O.q + r.{.B.z.b.",
"K y % ; < b x - * : T L q ; - ; y t 7 ; X - q i C ; < ; q 7 * ; J w 2 2 5 q D ; - : Y D b ; ; ; r t r ;   - 7 y K 1 & ; y 7 X - ",
"=X.XOXXX|.`.|.e.1 F.<X X XOXOX].n.[.U.d.- Z.3X'.|.OX[.+XOXd.@ S.4X X[.OXOXOX Xu., j.2X X[.T.@X[.s.{.OXD.- t.3X.XOX[.OX.X|.B.5 e.",
"b.v.v.b.n.n.v.L.C 2Xk.c.b.n.s.1.<.x.B.U.N 3XF.z.z.b.z.x.x.U.r n.v.b.n.z.x.x.n.'.7 3XA.c.x.x.x.*.&.s.n.`.k -XG.b.x.z.n.c.s.+Xn p.",
"c.n.z.z.x.x.z.4.V oXv.v.x.a.&.).x.z.z.f.z .Xb.z.z.z.z.z.z.s.e b.z.b.z.z.x.z.b.d.q $XM.c.z.z.5.`.n.x.b.n.b _.S.z.z.b.z.z.x.n.b 4.",
"z.z.z.z.b.x.x.[ Q |.n.z.x.3.'.x.x.b.c.{ C OXx.b.z.z.z.c.x.o.x b.c.z.z.z.z.z.n.%.V $Xn.x.w.5.{.v.x.x.b.*.m `.n.z.z.z.z.z.n.&.U y.",
"z.c.z.z.b.x.7.' E OXn.q.v.x.v.z.z.z.z.X.N @Xz.z.z.z.z.c.s.{ F b.z.b.z.z.z.x.x.{ G oXn.z.z.z.b.c.z.z.z.&.y `.n.z.z.z.x.z.n.<.G l.",
"z.x.z.z.z.z.s.} / |.b.k.b.x.x.v.z.c.8.X.c OXz.<.c.z.x.c.z._ F m.x.v.z.n.x.c.x.` J oXn.n.c.b.c.z.z.q.z.O.y U.B.<.z.z.z.z.x.o.G t.",
"`.a.@.z.$.o.| 7 9 n.`.f.a.a.<.{ ....] f < K.`.z.{ &.o.O.X.7 + S.'.s.o.z.{ { &.e * b.`.n.x.h.{ o.O.O...j $ p.`.a.$.+.o.` &.b = 2.",
"b M 0 - - ; 7 @ + 5 v v b < * * q y k # $ 5 j L D * * ; f @ + s n V w > ; < j @ + 5 v v r 3 ; = 7 t V , $ 5 n L G : * - j @ + < ",
"'.`.].:.d G.:XOXXX|.OXQ.T.r.< S.-X X X|.|.R.OX'.`.r.< S.5X|.XX.X|.|.`.r.@ D.:X|.|.|.W.+X{.d.: t.-X X X.X|.|.OX X XS.5 e.-X#X|.XX",
"n.v.K.Y.T <XF.v.n.n.n.b.M.U.N 3XF.j.n.v.v.n.M.v.n.|.b 3XG.M.n.b.S.M.n.W.7 7XF.m.S.M.n.M.x.|.h :X!.M.v.v.v.M.n.v.M.+XB &X!.M.n.n.",
"c.c.x.9.Z @Xz.c.n.b.c.z.x.a.n @Xb.b.z.z.z.z.c.x.z.a.v %Xn.x.z.b.z.z.x.a.e %Xb.b.z.b.n.z.z.n.e OXv.c.x.z.z.b.n.z.x.B.v U.n.c.z.n.",
"x.z.a._ M '.z.z.x.c.z.z.z.&.T @Xb.b.b.b.z.b.n.b.z.{ j +Xn.z.z.b.c.z.x...w @XM.b.x.z.z.z.z.<.M OXM.c.z.z.c.z.z.z.z.@.y U.n.c.z.n.",
"x.x.a.} E {.z.z.b.c.c.z.a._ V '.b.b.x.z.n.z.c.v.q.{ G $Xn.x.z.z.b.b.M...m .Xv.x.x.z.b.z.z.{ q '.M.c.c.z.z.z.z.c.z.>.G I.G.v.z.n.",
"z.b.z.' Q `.z.z.b.c.z.z.z.' E @Xn.c.b.z.z.c.b.b.x.o.L @Xn.z.c.b.z.x.x.] k .XM.x.c.z.z.z.z.$.L .Xn.c.n.z.c.b.z.c.w.&.L `.M.z.c.n.",
"c.x.s._ P |.x.z.z.z.z.z.a.[ R  Xn.c.c.b.z.z.z.q.w. .j .Xn.<.z.b.z.x.n.] q .Xb.z.c.z.z.z.z.[ P  XM.x.x.z.n.z.x.q.w.@.j U.G.<.z.x.",
"&.O._ 7 7 L.`.b.<.<.<.+.%.j d D.'.x.z.b.2.>.@.@.O.q ; L.|.a.*.&.O.&.*.7 @ G..Xb.2.&.<.>...q < n.@Xv.x.v.2.2.&.@.O.i % p.'.n.<.<.",
"r e 4 @ $ d N < - : H K q @ @ 5 T y j 5 ; : F K b < @ 1 V b v 2 e y f @ @ 6 n 3 : < G F q @ + > P i b 5 , , F L u 2 , < T b e 8 ",
"U.P.L.b.I.I.I.=.1 Z.=X_.I.I.I.].`.U.L.:.< i.*X XI.I.E.H._.U.U.U.P.U.I.a.I.I.T.:.+ t.=X(.P.P.L.I.L.`.U.p.< ,.*X/.U.T.I.I._.I.U.P.",
"D.n.z.<.n.b.M.P.B 3XG.n.v.m.v.c.v.M.M.U.c -XF.c.x.n.n.M.n.B.M.M.M.n.G.&.n.n.v.OXe 2XH.n.n.M.v.v.M.V.n.OXN >X!.m.v.v.B.M.n.M.v.n.",
"b.z.z.z.2.v.b.a.B %Xz.c.c.c.c.c.z.b.z.x.j %Xc.c.z.z.z.z.z.m.z.b.c.z.z.z.*.z.c.v.e &Xb.z.z.v.x.z.x.x.b.n.y OXn.c.z.w.c.x.b.c.z.z.",
"z.z.b.x.z.z.7.o.E |.z.z.x.x.z.z.z.c.q.@.P '.c.z.x.z.z.x.z.b.c.x.b.z.z.z.h.z.w.5.k @XM.z.z.z.z.z.c.b.z.5.k `.b.c.x.x.z.x.z.m.c.z.",
"x.c.h.z.M.w.8.} /  Xb.n.x.x.x.n.x.x.z.} E .Xz.c.n.z.z.b.z.c.c.z.z.z.c.z.c.z.x...G @Xn.b.z.z.z.c.z.c.z.<.L _.v.c.z.z.z.z.v.b.n.z.",
"x.h.5.z.1.*.[ 0 l H.@Xn.m.c.<.x.O.*.&.j 9 D.`.m.c.c.>.z.@.<.@.5.x.h.5.x.O.O.O.q - G.OXn.z.b.>.z.<.1.@.k < n.'.m.k.k.5.z.1.5.<.+.",
"i I H K e b k . $ 7 B M H H H L y y V + , d P H H H J I K i K > i I J U u i L . + 6 C m I H J U y y K - $ 5 V I H H J I U w K > "
};
