/* XPM */
static char *smaller_floor[] = {
/* columns rows colors chars-per-pixel */
"64 64 10 1 ",
"  c #3A3634",
". c #3A3635",
"X c #5B584D",
"o c #5B594D",
"O c #5B584E",
"+ c #5B594E",
"@ c #716B59",
"# c #726B59",
"$ c #726B5A",
"% c #8C8A73",
/* pixels */
"%%%%%%%%%..o%%%%%%%%.o%%%%%#o%% %%%%%%%%% .o%%%%%%%%.o%%%%%#o%%.",
"%ooXX##@o+++XoooooXXX+XXXXoooooXoooooXXX++++XoooooXX++XXXXooooo.",
"%oo######$$##ooooo$##$#$$$ooooooooooo$#######ooooo$####$$$ooooo.",
"%o$###################$oo###oooooo$###################$oo@##ooo.",
"%o####################$ooo$#oooo######################$ooo$#ooo.",
"o$######################+X$#$$$$#######################$+o$##oo.",
" $######################################################$####oo.",
"%############################################################oo.",
"%@########################################################+o##+.",
"%o########################################################+oooo.",
"%o$#######################################################ooooo.",
"%o$#######################################################$oooo.",
"%oo###########################################################X.",
"%oo#######################################################@###+.",
"%oo#######################################################o$#$X.",
"%oo#######################################################$o.$X.",
"%oo##########################################################...",
"%oo#####$$#$################################################o@+.",
"%oo#####. +XXo###########################################@####X.",
"....#$ .+o$#############################################oo$###X.",
"%ooo..oo.#############################################$ooo$###X.",
"%o$$XX$$.#############################################$++$####+.",
"%o######o$####################################################+.",
".$######o#####################################################X.",
"%########o$###############################################$oo@+.",
"%@#######o$###############################################$oooo.",
"%o$########################################################oooo.",
"%o$#########################################################ooo.",
"%oo#########################################################ooo.",
"%ooo########################################################ooo.",
"%ooo########################################################ooo.",
" ooo#######################################################oooo.",
"%oo#######################################################$oooo.",
"%oo#######################################################$oooo.",
"%oo########################################################oooo.",
"%o$###################################################$oo###ooo.",
"%o$####################################################ooo$#ooo.",
"o$#####################################################$+o##$oo.",
".#######################################################$####oo.",
"%############################################################oo.",
"%@########################################################+o##+.",
"%o########################################################+oooo.",
"%o$#######################################################ooooo.",
"%o$#######################################################$oooo.",
"%oo###########################################################X.",
"%oo#######################################################@###X.",
"%oo#######################################################o###X.",
"%oo########################################################o.$X.",
"%oo##########################################################...",
"%oo#########################################################o@+.",
"%oo######################################################@###$X.",
"%o$#####################################################oo$###X.",
"%o#####################################################ooo$###X.",
"%o$###################################################$X+$####+.",
"%o############################@++#######o$############$#######X.",
" $############################+oo#######o###########ooo#######X.",
"%###########oooo##############Xo#########o$#o#######oooo##$oo@X.",
"%##########oooo+##############$$#########+++$#######++oo##$oooo.",
"%o$#######$oooo######$#######$o++######## $#########$$oo###oooo.",
"%o$#######$oo#####$ooo$######oooo######## $#######$oo#######ooo.",
"%oo######o#######oooooo#####oooooo$###### $######ooooo$#####ooo.",
"%oooo$##$.$###@oooooooo#$oooooooooooo$#$.o$###@ooooooo$##oooooo.",
"%oooo+OO. O+O++oooooo+oO+oooooooooooo+O..+++O++ooooooo+OOooooo+.",
"................................................................"
};
