/* XPM */
static char *smaller_collectable[] = {
/* columns rows colors chars-per-pixel */
"30 42 213 2 ",
"   c #07070C",
".  c #09070C",
"X  c #07080C",
"o  c #0A090D",
"O  c #130C0D",
"+  c #1A0C0D",
"@  c #15100E",
"#  c #1C110F",
"$  c #0B0A11",
"%  c #130D12",
"&  c #1B0E12",
"*  c #151112",
"=  c #1C1314",
"-  c #1D1519",
";  c #1F1818",
":  c #210D0E",
">  c #290F0E",
",  c #25100F",
"<  c #32120F",
"1  c #240E12",
"2  c #280D12",
"3  c #241314",
"4  c #2B1314",
"5  c #241915",
"6  c #2D1816",
"7  c #241618",
"8  c #2C1519",
"9  c #241A1A",
"0  c #2D1B1B",
"q  c #321415",
"w  c #3B1514",
"e  c #331915",
"r  c #321619",
"t  c #341C1B",
"y  c #3B1C1B",
"u  c #3E1912",
"i  c #2B211E",
"p  c #35221E",
"a  c #3C211D",
"s  c #2A1D20",
"d  c #341D21",
"f  c #3D1E21",
"g  c #2F2120",
"h  c #342323",
"j  c #3B2423",
"k  c #3D2A25",
"l  c #3C2628",
"z  c #332929",
"x  c #3C2B2C",
"c  c #362729",
"v  c #431513",
"b  c #451B16",
"n  c #421E1D",
"m  c #4B1C1C",
"M  c #4D1A14",
"N  c #561D1C",
"B  c #43211D",
"V  c #4B211C",
"C  c #55241C",
"Z  c #5F2B1B",
"A  c #56311D",
"S  c #673A0E",
"D  c #7F3F0E",
"F  c #65291D",
"G  c #613B12",
"H  c #6C3E13",
"J  c #783E16",
"K  c #773E14",
"L  c #461E20",
"P  c #491F22",
"I  c #442423",
"U  c #4B2523",
"Y  c #442A26",
"T  c #4B2925",
"R  c #462529",
"E  c #442C2A",
"W  c #4A2C2B",
"Q  c #4E2728",
"!  c #522524",
"~  c #522925",
"^  c #5A2C23",
"/  c #522D2B",
"(  c #582E2A",
")  c #5B2526",
"_  c #45312D",
"`  c #4C312C",
"'  c #4C3727",
"]  c #55322B",
"[  c #5A312A",
"{  c #55392D",
"}  c #5D392F",
"|  c #583026",
" . c #423332",
".. c #4C3331",
"X. c #473A33",
"o. c #533532",
"O. c #593431",
"+. c #523A33",
"@. c #5B3C33",
"#. c #563C38",
"$. c #593F39",
"%. c #612E2A",
"&. c #672A26",
"*. c #633224",
"=. c #62352B",
"-. c #6D3429",
";. c #643B2C",
":. c #6B3A2E",
">. c #6A3524",
",. c #7A3626",
"<. c #633533",
"1. c #643B32",
"2. c #693D34",
"3. c #6A3C3A",
"4. c #733E34",
"5. c #7B3930",
"6. c #76400E",
"7. c #6D4215",
"8. c #7D4313",
"9. c #774416",
"0. c #5D433A",
"q. c #5A4538",
"w. c #7A432D",
"e. c #7C542C",
"r. c #6C4335",
"t. c #624239",
"y. c #6C433B",
"u. c #684936",
"i. c #714436",
"p. c #724A3D",
"a. c #7C4A3F",
"s. c #7C4735",
"d. c #6F513C",
"f. c #75523B",
"g. c #7F663B",
"h. c #6D4B42",
"j. c #734B42",
"k. c #685148",
"l. c #755348",
"z. c #7F5C54",
"x. c #6E6051",
"c. c #7D6553",
"v. c #894E0D",
"b. c #824613",
"n. c #834D15",
"m. c #8A4E13",
"M. c #8A4918",
"N. c #964C16",
"B. c #8D5214",
"V. c #8D5219",
"C. c #8B5719",
"Z. c #925312",
"A. c #9B5714",
"S. c #92521A",
"D. c #955A1A",
"F. c #985B1C",
"G. c #945619",
"H. c #A25919",
"J. c #AF6511",
"K. c #814D2A",
"L. c #90432A",
"P. c #8A5123",
"I. c #80552F",
"U. c #885827",
"Y. c #975C25",
"T. c #855A3A",
"R. c #885637",
"E. c #9A5E38",
"W. c #A65F26",
"Q. c #B25F26",
"!. c #976124",
"~. c #8F6033",
"^. c #956739",
"/. c #937139",
"(. c #A66E2C",
"). c #A56327",
"_. c #B2672B",
"`. c #BB782E",
"'. c #A26B3D",
"]. c #A46739",
"[. c #B26F36",
"{. c #A77636",
"}. c #B27734",
"|. c #BB7C33",
" X c #B17536",
".X c #C06F15",
"XX c #CC7B28",
"oX c #835244",
"OX c #855E4A",
"+X c #89554B",
"@X c #925C4C",
"#X c #856444",
"$X c #8B6C4D",
"%X c #8A6149",
"&X c #946C49",
"*X c #8E7255",
"=X c #977557",
"-X c #986959",
";X c #BA7C41",
":X c #AA7743",
">X c #BF883D",
",X c #C68030",
"<X c #C78A3D",
"1X c #BC8643",
"2X c #BA8C4C",
"3X c #BB9043",
"4X c #B38157",
"5X c #AD8361",
"6X c #C58144",
"7X c #C78A44",
"8X c #C79447",
"9X c #C28F54",
"0X c #CDA548",
/* pixels */
".XH.J.7.7.Y.H 8.8.S.6.8.b.S.U.7.S 8.!.M.S G 6.G.B.D.8.`.b.Z.",
"b.q | w b ,.{.E./.0X].C W { ,.'.F b f.p % b 1._ 6 u.&.].> 9.",
"b.q *.g.3XJ M ,.9X&XI.].r.B v Z y $ = V n y ..< w.} u e.y n.",
"b.1 n s.w { =X4X^ r r f W _ h 4 d r ! y  .% ` 4 t.Y w q.= B.",
"9.{ :.| 0.=.&Xl.O.` ....L 8 l W Q I 9 @ o j b d _  .a 4 W m.",
"S.! V O.4 OXOX..k j ..#.o.O.W y r y a._ = N y 0 a Y q 4 4 V.",
"S.B ..r W y R y %.<.I t r q r L i.k 6 j.V M t h Y y q j l V.",
"H.I 8 8 d l 0.@XO.U O./ | =.3./ t W E 3 #.t $ X.g.W 4 j j M.",
"Z.4 4 j j h.<.T +X%.y n 3.z.l.Q O.o.r  .3 $.+ 3 #Xl I r 2 P.",
"Z.8 L j h.( o.3.O.R 2 : + % 7 R I B j.j c 8 4 & 1 q ] 2 B I.",
"Z.f f 0.m / / ..7 ] U 7 % % $ o O x Y h.l s & & o 1 I j q.e.",
"A.P O.P I L L I { = 3 + 0 0 7 o o o z I 1.h O & o & > j x.e.",
"A.U <.L y r 8 4 ; O 5 0 7 ; % % o . % s O.3 t * O + l r *XK.",
"F.0.I I r 7 d 7 = 0 c 7 % o $ . $ ; o $ 3 p 8 + + y t y OXP.",
"(.W d j 7 & 0 = l j o o $         O o o O h 3 4 U 4 : I r.U.",
"Y.q y t & O & Q a O o o X o . o   o o o o ; O t h.+ + ` ] P.",
"B.4 E 3 % $ y ` $ * $ . .   . .   . . . X = O Y @Xo 8 I ` P.",
"B.t E 3 W + O.5 * %   .     $ . . . . . $ * o z @X: E 6 _ ~.",
"B.` 0 3 W g h O o X     .   o X $ . . . X * X 0 u.| Q 4  .U.",
"B.h.4 % i X.; O o o . . $ . . o . . o . X @ X i ~ s.q I _ V.",
"Z.l.@ = 9 Y = $ o o o o   $   . . . . $   * X ; n n + ~ x ^.",
"G.k.# W k 4 @ o o . . X o o   . .     o X - X = y Y & f Y ).",
").q.T t.t.5 = O 7 o . o .   o   .   . o   7 X O I 1.3 l U _.",
"|.a T a oX7 @ X i     o   o . o $   o . o ; o @ ( ..4 h *.W.",
">Xt y 4 oX0 O . i o     . o   .   o . o 7 o . t ` / y 7 :.S.",
"<Xp 4 @ oX5 5 o p & . . . .   o o . . * - o o 2.B r t 1 :.S.",
">Xa 3 3 d.p 4 O 9 - o o o . o o X . @ 7 o % 4 a.1 y 3 I V V.",
">XI > a +.` d = 9 o   o . . o X . . 3 o . o  .>.^ U 3 n ~ m.",
",XW w I i j 0 s O 0 + o . o . . . o . o o t B [.w.a 8 ;.w n.",
"<X0.Y t : a + ..O = | o O o . o o o - @ 5 r.u ,.Y a e @.3 Z.",
">Xc.t z 5 k * e _ o | ~ o @ * * * * o # d.y & t I e U 0 y W.",
"}.l.r c 1 x = = O.= + v & = $ X O @ O o = + 3 y t 4 f 3 a.9.",
"}.-.r U ~ 3  .7 = o.@ 3 5 % % & & = % r & q U d 3 R 4 t.<.H ",
"}.u.4 I U a I r 3 0 t = 0  .t 4 & % - j ( O.e 3 f 8 ` j.8 J ",
" XR.4 d O.t 6 { 4 6 0 8 3 & ..#X4.4.4.=.T 4 , t 4 ` R.r q P.",
"Q.].q y 3.0 4 I _ 4 8 t 4 8 3 = 2 2 2 3 d I Y r ` 5Xw m %.J ",
"M.6Xm t -X] / p.:.o.8 4 y p a p p t t y ! Q y ~ / R.%X9X=.8.",
"N.6X] 4 $.b 1 ;.*.%Xu.6 > > e j T ( B Q w 4 8 e &X2X7XL.v N.",
"N.1XB > q.e y & 1 t *X$Xy 5 7 7 _ ` y t 3 4 6 T.2X;X8X^.L.XX",
"v.b 2 2 { ( ) 3 ~ h 3 1.$X( I 4 , 7 2 , ' /.7X:X XY.F w M J ",
"B.4 1 6 e 5.&.0 j t t 3 4 B / B V C F s.~.{.| 1 i.M q & % G ",
"J.v.S.m.C.Y.`.n.!.n.(.B.m.S.D.F.V.m.m.C.M.J G 7.U.8.G 7.).G."
};
